<mxfile host="Electron" modified="2024-01-19T03:26:18.416Z" agent="Mozilla/5.0 (X11; Linux x86_64) AppleWebKit/537.36 (KHTML, like Gecko) draw.io/22.1.16 Chrome/120.0.6099.109 Electron/28.1.0 Safari/537.36" etag="pbIT1ZQ5gGmkBmx4PL6B" version="22.1.16" type="device">
  <diagram name="Page-1" id="UgkzKDdlbD2YLOSZ790F">
    <mxGraphModel dx="139" dy="626" grid="1" gridSize="10" guides="1" tooltips="1" connect="1" arrows="1" fold="1" page="1" pageScale="1" pageWidth="850" pageHeight="1100" math="0" shadow="0">
      <root>
        <mxCell id="0" />
        <mxCell id="1" parent="0" />
        <mxCell id="WlptZsgnhNTtkk-JXFNz-1" value="" style="group" vertex="1" connectable="0" parent="1">
          <mxGeometry x="990" y="390.5" width="280" height="219" as="geometry" />
        </mxCell>
        <mxCell id="ce8JXZ0sOefDhEw3IZX--21" value="&lt;font style=&quot;font-size: 14px;&quot;&gt;Application - Patio&lt;/font&gt;" style="text;html=1;strokeColor=none;fillColor=none;align=center;verticalAlign=middle;whiteSpace=wrap;rounded=0;fontSize=11;fontFamily=Helvetica;fontColor=#666666;container=0;" parent="WlptZsgnhNTtkk-JXFNz-1" vertex="1">
          <mxGeometry width="130" height="30" as="geometry" />
        </mxCell>
        <mxCell id="ce8JXZ0sOefDhEw3IZX--16" value="" style="rounded=0;whiteSpace=wrap;html=1;fontFamily=Helvetica;fontSize=11;fontColor=default;fillColor=none;strokeWidth=3;dashed=1;strokeColor=#666666;container=0;" parent="WlptZsgnhNTtkk-JXFNz-1" vertex="1">
          <mxGeometry y="30" width="280" height="189" as="geometry" />
        </mxCell>
        <mxCell id="ce8JXZ0sOefDhEw3IZX--1" value="&lt;p style=&quot;margin:0px;margin-top:4px;text-align:center;&quot;&gt;&lt;font color=&quot;#666666&quot;&gt;&lt;b style=&quot;&quot;&gt;Location - Greenhouse&lt;/b&gt;&lt;/font&gt;&lt;/p&gt;&lt;hr size=&quot;1&quot;&gt;&lt;p style=&quot;margin:0px;margin-left:4px;&quot;&gt;&lt;font color=&quot;#666666&quot;&gt;Required:&lt;br&gt;&amp;nbsp;+ 1 Temperature component&amp;nbsp;&lt;/font&gt;&lt;/p&gt;&lt;p style=&quot;margin:0px;margin-left:4px;&quot;&gt;&lt;font color=&quot;#666666&quot;&gt;&amp;nbsp; &amp;nbsp; &amp;nbsp; &amp;nbsp;reporting every 30 seconds&lt;/font&gt;&lt;/p&gt;&lt;p style=&quot;margin:0px;margin-left:4px;&quot;&gt;&lt;font color=&quot;#666666&quot;&gt;&amp;nbsp;+ 1 Humidity components&lt;br&gt;&amp;nbsp; &amp;nbsp; &amp;nbsp; &amp;nbsp;reporting every 120 seconds&lt;br&gt;+ 1&amp;nbsp; CO2 component&lt;/font&gt;&lt;br style=&quot;border-color: var(--border-color); color: rgb(102, 102, 102);&quot;&gt;&lt;span style=&quot;color: rgb(102, 102, 102);&quot;&gt;&amp;nbsp; &amp;nbsp; &amp;nbsp; &amp;nbsp;reporting every 120 seconds&lt;/span&gt;&lt;font color=&quot;#666666&quot;&gt;&lt;br&gt;&lt;/font&gt;&lt;/p&gt;" style="verticalAlign=top;align=left;overflow=fill;fontSize=12;fontFamily=Helvetica;html=1;whiteSpace=wrap;strokeColor=#666666;fontColor=#333333;fillColor=#ffffff;labelBackgroundColor=none;strokeWidth=3;container=0;" parent="WlptZsgnhNTtkk-JXFNz-1" vertex="1">
          <mxGeometry x="30" y="53.079999999999984" width="220" height="146.92" as="geometry" />
        </mxCell>
        <mxCell id="WlptZsgnhNTtkk-JXFNz-2" value="" style="group" vertex="1" connectable="0" parent="1">
          <mxGeometry x="1300" y="390" width="470" height="220" as="geometry" />
        </mxCell>
        <mxCell id="ce8JXZ0sOefDhEw3IZX--22" value="&lt;font style=&quot;font-size: 14px;&quot;&gt;Application - House&lt;/font&gt;" style="text;html=1;strokeColor=none;fillColor=none;align=center;verticalAlign=middle;whiteSpace=wrap;rounded=0;fontSize=11;fontFamily=Helvetica;fontColor=#666666;container=0;" parent="WlptZsgnhNTtkk-JXFNz-2" vertex="1">
          <mxGeometry width="140" height="30" as="geometry" />
        </mxCell>
        <mxCell id="ce8JXZ0sOefDhEw3IZX--17" value="" style="rounded=0;whiteSpace=wrap;html=1;fontFamily=Helvetica;fontSize=11;fontColor=default;fillColor=none;strokeWidth=3;dashed=1;strokeColor=#666666;container=0;" parent="WlptZsgnhNTtkk-JXFNz-2" vertex="1">
          <mxGeometry y="30" width="470" height="190" as="geometry" />
        </mxCell>
        <mxCell id="ce8JXZ0sOefDhEw3IZX--12" value="&lt;p style=&quot;margin:0px;margin-top:4px;text-align:center;&quot;&gt;&lt;font color=&quot;#666666&quot;&gt;&lt;b style=&quot;&quot;&gt;Location - House&lt;/b&gt;&lt;/font&gt;&lt;/p&gt;&lt;hr size=&quot;1&quot;&gt;&lt;p style=&quot;margin:0px;margin-left:4px;&quot;&gt;&lt;br&gt;&lt;/p&gt;" style="verticalAlign=top;align=left;overflow=fill;fontSize=12;fontFamily=Helvetica;html=1;whiteSpace=wrap;strokeColor=#666666;fontColor=#333333;fillColor=#ffffff;labelBackgroundColor=none;strokeWidth=3;container=0;" parent="WlptZsgnhNTtkk-JXFNz-2" vertex="1">
          <mxGeometry x="175" y="50" width="120" height="40" as="geometry" />
        </mxCell>
        <mxCell id="ce8JXZ0sOefDhEw3IZX--13" style="edgeStyle=orthogonalEdgeStyle;shape=connector;curved=0;rounded=1;orthogonalLoop=1;jettySize=auto;html=1;exitX=0;exitY=0.5;exitDx=0;exitDy=0;labelBackgroundColor=default;strokeColor=#666666;strokeWidth=3;align=center;verticalAlign=middle;fontFamily=Helvetica;fontSize=11;fontColor=default;endArrow=none;endFill=0;" parent="WlptZsgnhNTtkk-JXFNz-2" source="ce8JXZ0sOefDhEw3IZX--12" target="ce8JXZ0sOefDhEw3IZX--9" edge="1">
          <mxGeometry relative="1" as="geometry" />
        </mxCell>
        <mxCell id="ce8JXZ0sOefDhEw3IZX--14" style="edgeStyle=orthogonalEdgeStyle;shape=connector;curved=0;rounded=1;orthogonalLoop=1;jettySize=auto;html=1;labelBackgroundColor=default;strokeColor=#666666;strokeWidth=3;align=center;verticalAlign=middle;fontFamily=Helvetica;fontSize=11;fontColor=default;endArrow=none;endFill=0;exitX=1;exitY=0.5;exitDx=0;exitDy=0;" parent="WlptZsgnhNTtkk-JXFNz-2" source="ce8JXZ0sOefDhEw3IZX--12" target="ce8JXZ0sOefDhEw3IZX--11" edge="1">
          <mxGeometry relative="1" as="geometry" />
        </mxCell>
        <mxCell id="WlptZsgnhNTtkk-JXFNz-3" value="" style="group" vertex="1" connectable="0" parent="WlptZsgnhNTtkk-JXFNz-2">
          <mxGeometry x="20" y="110" width="430" height="90" as="geometry" />
        </mxCell>
        <mxCell id="ce8JXZ0sOefDhEw3IZX--9" value="&lt;p style=&quot;margin:0px;margin-top:4px;text-align:center;&quot;&gt;&lt;font color=&quot;#666666&quot;&gt;&lt;b style=&quot;&quot;&gt;Location - First Floor&lt;/b&gt;&lt;/font&gt;&lt;/p&gt;&lt;hr size=&quot;1&quot;&gt;&lt;p style=&quot;margin:0px;margin-left:4px;&quot;&gt;&lt;font color=&quot;#666666&quot;&gt;Required:&lt;br&gt;&amp;nbsp;+ 1&amp;nbsp; Temperature component&amp;nbsp;&lt;/font&gt;&lt;/p&gt;&lt;p style=&quot;margin:0px;margin-left:4px;&quot;&gt;&lt;font color=&quot;#666666&quot;&gt;&lt;span style=&quot;white-space: pre;&quot;&gt;&#x9;&lt;/span&gt;reporting every 30 seconds&lt;br&gt;&amp;nbsp;&lt;/font&gt;&lt;/p&gt;" style="verticalAlign=top;align=left;overflow=fill;fontSize=12;fontFamily=Helvetica;html=1;whiteSpace=wrap;strokeColor=#666666;fontColor=#333333;fillColor=#ffffff;labelBackgroundColor=none;strokeWidth=3;container=0;" parent="WlptZsgnhNTtkk-JXFNz-3" vertex="1">
          <mxGeometry width="190" height="90" as="geometry" />
        </mxCell>
        <mxCell id="ce8JXZ0sOefDhEw3IZX--11" value="&lt;p style=&quot;margin:0px;margin-top:4px;text-align:center;&quot;&gt;&lt;font color=&quot;#666666&quot;&gt;&lt;b style=&quot;&quot;&gt;Location - Basement&lt;/b&gt;&lt;/font&gt;&lt;/p&gt;&lt;hr size=&quot;1&quot;&gt;&lt;p style=&quot;margin:0px;margin-left:4px;&quot;&gt;&lt;font color=&quot;#666666&quot;&gt;Optional:&lt;br&gt;&amp;nbsp;+ 1&amp;nbsp; CO component&amp;nbsp;&lt;/font&gt;&lt;/p&gt;&lt;p style=&quot;margin:0px;margin-left:4px;&quot;&gt;&lt;font color=&quot;#666666&quot;&gt;&lt;span style=&quot;white-space: pre;&quot;&gt;&#x9;&lt;/span&gt;reporting every 30 seconds&lt;br&gt;&amp;nbsp;&lt;br&gt;&lt;/font&gt;&lt;/p&gt;" style="verticalAlign=top;align=left;overflow=fill;fontSize=12;fontFamily=Helvetica;html=1;whiteSpace=wrap;strokeColor=#666666;fontColor=#333333;fillColor=#ffffff;labelBackgroundColor=none;strokeWidth=3;container=0;" parent="WlptZsgnhNTtkk-JXFNz-3" vertex="1">
          <mxGeometry x="240" width="190" height="90" as="geometry" />
        </mxCell>
      </root>
    </mxGraphModel>
  </diagram>
</mxfile>
